<?xml version="1.0" encoding="UTF-8"?><svg id="a" xmlns="http://www.w3.org/2000/svg" width="1358.037" height="481.592" viewBox="0 0 1358.037 481.592"><path d="M241.649,351.512h-57.237L288.624,55.5h66.197l104.355,296.012h-57.236l-79.062-235.306h-2.312l-78.917,235.306ZM243.528,235.449h156.1v43.072h-156.1v-43.072Z" style="fill:#fff; stroke-width:0px;"/><path d="M498.197,351.512V55.5h52.322v110.715h2.168c2.697-5.395,6.505-11.152,11.419-17.272,4.914-6.118,11.562-11.369,19.946-15.755,8.383-4.383,19.078-6.576,32.087-6.576,17.15,0,32.641,4.361,46.469,13.081,13.825,8.722,24.811,21.585,32.954,38.591,8.142,17.008,12.214,37.846,12.214,62.512,0,24.379-4,45.096-11.997,62.151-7.999,17.055-18.887,30.064-32.665,39.025-13.781,8.961-29.391,13.442-46.83,13.442-12.72,0-23.271-2.121-31.653-6.359-8.384-4.239-15.104-9.37-20.163-15.393-5.059-6.021-8.986-11.73-11.78-17.128h-3.035v34.978h-51.455ZM549.507,240.508c0,14.359,2.046,26.934,6.143,37.724,4.095,10.793,10.021,19.201,17.778,25.222,7.756,6.023,17.175,9.034,28.257,9.034,11.563,0,21.247-3.107,29.052-9.323,7.806-6.215,13.707-14.743,17.706-25.583,3.997-10.84,5.998-23.198,5.998-37.074,0-13.778-1.976-26.017-5.926-36.712-3.952-10.696-9.828-19.079-17.634-25.149-7.805-6.07-17.538-9.106-29.196-9.106-11.179,0-20.669,2.94-28.474,8.817-7.805,5.878-13.708,14.117-17.706,24.716-3.999,10.601-5.998,23.079-5.998,37.435Z" style="fill:#fff; stroke-width:0px;"/><path d="M752.436,351.512v-222.009h50.732v37.001h2.312c4.047-12.814,11.008-22.715,20.886-29.702,9.876-6.985,21.175-10.479,33.894-10.479,2.892,0,6.144.122,9.757.361,3.613.242,6.624.603,9.033,1.084v48.131c-2.218-.77-5.709-1.468-10.479-2.096-4.77-.625-9.373-.939-13.804-.939-9.539,0-18.092,2.048-25.655,6.143-7.565,4.097-13.514,9.756-17.851,16.983-4.336,7.227-6.504,15.562-6.504,25.005v130.517h-52.322Z" style="fill:#fff; stroke-width:0px;"/><path d="M1055.382,258.142v-128.638h52.322v222.009h-50.732v-39.458h-2.312c-5.012,12.43-13.226,22.597-24.644,30.497-11.419,7.902-25.464,11.852-42.133,11.852-14.551,0-27.39-3.252-38.519-9.756-11.13-6.504-19.827-15.994-26.09-28.474-6.265-12.478-9.395-27.582-9.395-45.312v-141.357h52.322v133.263c0,14.07,3.853,25.247,11.563,33.533,7.708,8.288,17.825,12.43,30.353,12.43,7.708,0,15.176-1.879,22.403-5.637,7.227-3.758,13.175-9.37,17.85-16.838,4.673-7.466,7.011-16.839,7.011-28.112Z" style="fill:#fff; stroke-width:0px;"/><path d="M1336.939,188.186l-47.697,5.203c-1.351-4.817-3.686-9.345-7.01-13.586-3.324-4.239-7.782-7.66-13.37-10.262-5.589-2.602-12.43-3.902-20.523-3.902-10.891,0-20.019,2.362-27.391,7.083-7.371,4.722-11.009,10.84-10.912,18.356-.097,6.457,2.288,11.708,7.154,15.754,4.865,4.047,12.937,7.372,24.21,9.973l37.869,8.094c21.005,4.53,36.64,11.708,46.902,21.536,10.262,9.828,15.44,22.692,15.537,38.591-.097,13.973-4.169,26.283-12.213,36.929-8.047,10.648-19.201,18.959-33.461,24.933-14.262,5.973-30.642,8.961-49.142,8.961-27.174,0-49.048-5.709-65.62-17.127-16.574-11.418-26.45-27.34-29.63-47.77l51.021-4.914c2.312,10.022,7.227,17.586,14.742,22.692,7.517,5.108,17.295,7.66,29.341,7.66,12.431,0,22.427-2.552,29.992-7.66,7.563-5.106,11.346-11.418,11.346-18.935,0-6.359-2.435-11.61-7.299-15.754-4.867-4.142-12.408-7.322-22.62-9.54l-37.869-7.95c-21.296-4.431-37.051-11.924-47.263-22.475-10.215-10.551-15.274-23.921-15.177-40.109-.098-13.681,3.636-25.558,11.201-35.628,7.563-10.068,18.115-17.873,31.654-23.415,13.536-5.54,29.171-8.311,46.902-8.311,26.017,0,46.516,5.542,61.5,16.622,14.982,11.082,24.258,26.066,27.823,44.951Z" style="fill:#fff; stroke-width:0px;"/><ellipse cx="135.696" cy="63.723" rx="32.866" ry="63.049" transform="translate(30.361 170.394) rotate(-70.516)" style="fill:#3583f8; stroke-width:0px;"/><rect x="35.025" y="57.264" width="126.097" height="225.589" transform="translate(62.339 -22.973) rotate(19.484)" style="fill:#3583f8; stroke-width:0px;"/><ellipse cx="60.451" cy="276.394" rx="32.866" ry="63.049" transform="translate(-220.278 241.193) rotate(-70.516)" style="fill:#3583f8; stroke-width:0px;"/><path d="M4.932,275.326l16.166,82.343c1.701,8.663,12.066,12.33,18.836,6.665l64.354-53.855c6.892-5.768,4.895-16.844-3.577-19.841l-80.52-28.489c-8.473-2.998-16.991,4.358-15.259,13.177Z" style="fill:#3583f8; stroke-width:0px;"/></svg>